<?xml version="1.0" standalone="no"?>
<!DOCTYPE svg PUBLIC "-//W3C//DTD SVG 20010904//EN"
 "http://www.w3.org/TR/2001/REC-SVG-20010904/DTD/svg10.dtd">
<svg version="1.0" xmlns="http://www.w3.org/2000/svg"
 width="1031.000000pt" height="521.000000pt" viewBox="0 0 1031.000000 521.000000"
 preserveAspectRatio="xMidYMid meet">
<metadata>
Created by potrace 1.16, written by Peter Selinger 2001-2019
</metadata>
<g transform="translate(0.000000,521.000000) scale(0.100000,-0.100000)"
fill="#000000" stroke="none">
<path d="M0 2605 l0 -2605 5155 0 5155 0 0 2605 0 2605 -5155 0 -5155 0 0
-2605z m8410 1626 c67 -36 144 -121 172 -188 23 -57 23 -64 23 -408 l0 -350
-31 -65 c-34 -70 -98 -141 -154 -170 -76 -39 -106 -41 -626 -41 -279 1 -517
-2 -530 -5 -47 -12 -39 -123 12 -191 l25 -33 -25 10 c-90 34 -224 116 -286
175 -31 29 -58 45 -84 50 -103 18 -198 92 -248 193 l-33 67 0 365 c0 356 1
366 22 413 33 69 108 145 178 179 l60 28 740 -2 740 -3 45 -24z"/>
<path d="M7560 3900 c0 -100 0 -100 25 -100 23 0 24 3 27 68 l3 67 35 -67 c33
-66 36 -68 72 -68 l38 0 0 100 0 100 -25 0 c-24 0 -25 -2 -25 -67 l-1 -68 -37
67 c-35 65 -39 68 -74 68 l-38 0 0 -100z"/>
<path d="M7800 3899 l0 -101 60 4 c71 5 98 25 107 81 7 46 -11 91 -43 106 -14
6 -47 11 -74 11 l-50 0 0 -101z"/>
<path d="M8145 3988 c-3 -7 -18 -52 -34 -100 l-30 -88 31 0 c21 0 31 6 35 20
4 15 14 20 38 20 24 0 34 -5 38 -20 4 -14 14 -20 35 -20 l31 0 -33 98 -33 97
-36 3 c-24 2 -39 -1 -42 -10z"/>
<path d="M6862 3794 l3 -46 63 0 c34 1 134 1 222 1 l160 1 0 45 0 45 -226 0
-225 0 3 -46z"/>
<path d="M7737 3594 c-3 -3 -4 -16 -1 -28 3 -20 0 -22 -28 -18 -37 6 -58 -16
-58 -61 0 -52 15 -66 70 -65 l50 1 0 89 c0 67 -3 88 -13 88 -8 0 -16 -3 -20
-6z"/>
</g>
</svg>
